<svg xmlns="http://www.w3.org/2000/svg" xmlns:xlink="http://www.w3.org/1999/xlink" width="0" height="0" style="position:absolute">

<symbol id="icon_pixiv" viewBox="0 0 142.1 128.3">
        <path d="M124.5 15.4C113.3 5.6 97.7 0 79.5 0 32.2 0 0 36.5 0 36.5l9.1 14.4s5 .4 2.4-8.1c2.3-4.3 6.8-10.2 15.6-16.9v95.8c-3.8 1.1-8.8 3.1-5.4 6.5h26.1c3.4-3.4-2-5.5-5.3-6.5V99.1s17.9 7 37.1 7c16.9 0 32.3-5 43.8-14.1 11.5-9 18.8-22.5 18.8-38-.1-15-6.6-28.9-17.7-38.6zm-13.9 69.1c-7.9 7.8-19.4 12.8-32.7 12.7-14.8 0-27.3-2.9-35.5-6.9V69.7 18.4C51.4 12 66.1 8 77.9 8.1c14.4 0 25.7 5.4 33.3 13.7 7.6 8.3 11.8 19.3 11.8 32.1 0 12.4-4.4 22.7-12.4 30.6z"/>
</symbol>

<symbol id="icon_twitter" viewBox="0 0 92 74.8">
        <path d="M92 8.8c-3.4 1.5-7 2.5-10.8 3 3.9-2.3 6.9-6 8.3-10.4-3.6 2.2-7.7 3.7-12 4.6-3.5-3.7-8.4-6-13.8-6-10.4 0-18.9 8.5-18.9 18.9 0 1.5.2 2.9.5 4.3-15.7-.8-29.6-8.3-38.9-19.7-1.6 2.8-2.6 6-2.6 9.5 0 6.5 3.3 12.3 8.4 15.7-3.1-.1-6-.9-8.5-2.4v.2c0 9.1 6.5 16.8 15.1 18.5-1.6.4-3.2.7-5 .7-1.2 0-2.4-.1-3.6-.3 2.4 7.5 9.4 13 17.6 13.1-6.5 5.1-14.6 8.1-23.4 8.1-1.5 0-3-.1-4.5-.3 8.4 5.4 18.3 8.5 28.9 8.5 34.7 0 53.7-28.8 53.7-53.7 0-.8 0-1.6-.1-2.4 3.9-2.7 7.1-6.1 9.6-9.9z"/>
</symbol>

<symbol id="logo_brdr" viewBox="NaN 16 9.5 26.9 42.5">
        <style>.st0{fill:#231815;}</style><path class="st0" d="M10.6 9.5c.2 0 .3.2.2.4l-17 41.7c-.1.2-.2.3-.4.3h-9.1c-.2 0-.4-.2-.3-.4L1.1 9.8c.1-.2.2-.3.4-.3H-16V52h26.9V9.5h-.3z"/>
</symbol>
</svg>