<?xml version="1.0" encoding="utf-8"?>
<!-- Generator: Adobe Illustrator 19.0.0, SVG Export Plug-In . SVG Version: 6.00 Build 0)  -->
<svg version="1.1" id="レイヤー_1" xmlns="http://www.w3.org/2000/svg" xmlns:xlink="http://www.w3.org/1999/xlink" x="0px"
	 y="0px" viewBox="0 0 240.5 40" style="enable-background:new 0 0 240.5 40;" xml:space="preserve">
<g id="text">
	<path d="M3.9,32.1C1.2,32.1,0,31,0,28.8V6.1C0,4,1.2,2.8,3.9,2.8h8.5c9.6,0,11.6,7.5,11.6,14.8c0,7.4-2,14.5-11.6,14.5H3.9z
		 M11.1,10h-0.2c-1.3,0-1.7,0.1-1.7,1.3v12.1c0,1.2,0.4,1.3,1.7,1.3h0.2c2.8,0,3.4-1.5,3.4-7.4C14.4,11.5,14,10,11.1,10z"/>
	<path d="M46.7,29.2c0,1.9-0.6,2.3-2.1,2.6c-2.5,0.4-6.7,0.6-8.9,0.6c-7.2,0-10.2-1.7-10.2-6.8c0-4.3,1.2-6.6,7.1-7.2l3.8-0.4
		c1-0.1,1.1-0.2,1.1-1.1c0-0.9-0.4-1.1-3-1.1c-2,0-3.8,0.2-5.3,0.3c-1.2,0.1-2.1-0.7-2.1-2.8c0-1.7,0.4-2.8,1.7-3.6
		c1.3-0.7,4.6-1.2,6.9-1.2c7.4,0,11,1.8,11,7.1V29.2z M37.7,23.5c0-0.9-0.2-1.1-0.9-1.1h-0.6c-1.8,0-2.2,0.7-2.2,2.4
		c0,1.5,0.3,2.3,2.2,2.3c1.3,0,1.4-0.1,1.4-1V23.5z"/>
	<path d="M71.5,30.7c0,1.3-2.4,1.6-4.6,1.6c-2.1,0-4.7-0.3-4.7-1.6V19.5c0-3.2-0.2-3.8-1.9-3.8c-0.5,0-1,0.1-1.2,0.3
		c-0.4,0.3-0.4,0.8-0.4,1.5v13.3c0,1.3-2.5,1.6-4.6,1.6s-4.7-0.3-4.7-1.6V11.8c0-1.8,0.6-2.3,2-2.6c2.4-0.4,6.5-0.6,8.7-0.6
		c7.6,0,11.2,1.6,11.2,7.5V30.7z"/>
	<path d="M87.2,25.5c0.9,0,1.4-0.2,2.1-0.2c0.8,0,1.1,0.9,1.1,2.5c0,2.1-0.4,3.5-0.9,3.8c-1,0.6-2.4,0.8-4.3,0.8
		c-5.9,0-11.2-1.9-11.2-11.5c0-9.6,5.1-12.4,11.2-12.4c1.6,0,3.2,0.1,4,0.7c0.5,0.3,0.9,1.6,0.9,3.2s-0.2,3.1-1.2,3.1
		c-0.7,0-1.2-0.1-2-0.1c-1.8,0-3.4,0.9-3.4,5.3C83.6,25.1,85.3,25.5,87.2,25.5z"/>
	<path d="M97.4,0c4.5,0,5.2,0.2,5.2,3.3c0,3.2-0.6,3.4-5.2,3.4c-4.4,0-5.2-0.2-5.2-2.9C92.1,0.2,93.1,0,97.4,0z M102,30.7
		c0,1.3-2.6,1.6-4.7,1.6s-4.6-0.3-4.6-1.6V10.4c0-1.3,2.5-1.6,4.6-1.6s4.7,0.2,4.7,1.6V30.7z"/>
	<path d="M127,30.7c0,1.3-2.4,1.6-4.6,1.6c-2.1,0-4.7-0.3-4.7-1.6V19.5c0-3.2-0.2-3.8-1.9-3.8c-0.5,0-1,0.1-1.2,0.3
		c-0.4,0.3-0.4,0.8-0.4,1.5v13.3c0,1.3-2.5,1.6-4.6,1.6S105,32,105,30.7V11.8c0-1.8,0.6-2.3,2-2.6c2.4-0.4,6.5-0.6,8.7-0.6
		c7.6,0,11.2,1.6,11.2,7.5V30.7z"/>
	<path d="M151.9,31c0,7.3-4.7,8.8-12.1,8.8c-3.8,0-6.8-0.6-8.1-1.3c-0.8-0.4-1.2-1.3-1.2-3c0-2.2,0.9-2.9,1.8-2.8
		c1.5,0.1,4.1,0.3,6.4,0.3c3.5,0,4.1-0.2,4.1-1.4V31c0-0.7-0.5-0.8-3.5-0.8c-6.1,0-9.8-1.2-9.8-9.3c0-8.8,3.5-12.2,13.5-12.2
		c2.2,0,4.5,0.2,6.9,0.7c1.5,0.3,2,0.8,2,2.6V31z M142.8,15.4c0-0.3-0.2-0.4-1.2-0.4c-2,0-2.8,1.1-2.8,5c0,3.8,0.8,4.6,2.8,4.6
		c1,0,1.2-0.1,1.2-0.3V15.4z"/>
	<path d="M186.4,29.2c0,1-0.2,1.7-1.2,2.1c-2.2,0.8-4.7,1.2-7.9,1.2c-10,0-14-5.3-14-14.9c0-9.4,3.8-15.3,14.3-15.3
		c2.5,0,5.3,0.4,6.2,0.9c1,0.6,1.6,1.3,1.6,3.5c0,2.2-0.9,3.7-2.1,3.5c-1.1-0.2-2.8-0.3-3.9-0.3c-3.6,0-6,0.7-6,7.8
		c0,6.2,1.2,7.2,4,7.2c0.4,0,0.7,0,0.9-0.1c0.2,0,0.2-0.1,0.2-0.4v-2.2c0-0.9-0.2-1.1-0.6-1.1h-0.6c-1,0-1.6-1.1-1.6-3.4
		c0-2.4,0.6-3.8,1.7-3.8h6.1c2.7,0,2.9,1.1,2.9,3.3V29.2z"/>
	<path d="M194,0c4.5,0,5.2,0.2,5.2,3.3c0,3.2-0.6,3.4-5.2,3.4c-4.4,0-5.2-0.2-5.2-2.9C188.8,0.2,189.7,0,194,0z M198.6,30.7
		c0,1.3-2.6,1.6-4.7,1.6s-4.6-0.3-4.6-1.6V10.4c0-1.3,2.5-1.6,4.6-1.6s4.7,0.2,4.7,1.6V30.7z"/>
	<path d="M214,15.8c-0.7,0-1.4-0.1-2.4-0.1c-0.6,0-0.9,0.3-0.9,1.7v13.4c0,1.3-2.5,1.6-4.6,1.6s-4.7-0.3-4.7-1.6V11.8
		c0-1.8,1.9-2.4,3.4-2.6c2.1-0.3,5.4-0.6,7.5-0.6c2.4,0,2.9,0.9,2.9,3.9C215.4,14.2,215,15.8,214,15.8z"/>
	<path d="M217.8,2c0-1.3,2.5-1.6,4.6-1.6c2.1,0,4.7,0.2,4.7,1.6v20.4c0,2.4,0.1,3.2,1.6,3.2h0.3c0.9,0,1,0.9,1,2.6
		c0,1.9-0.3,3-0.8,3.4c-0.8,0.6-1.8,0.8-4.1,0.8c-4.2,0-7.2-1.3-7.2-6V2z"/>
	<circle id="XMLID_1_" cx="236.3" cy="28.2" r="3.9"/>
</g>
</svg>
