<?xml version="1.0" encoding="utf-8"?>
<!-- Generator: Adobe Illustrator 19.0.0, SVG Export Plug-In . SVG Version: 6.00 Build 0)  -->
<svg version="1.1" id="レイヤー_1" xmlns="http://www.w3.org/2000/svg" xmlns:xlink="http://www.w3.org/1999/xlink" x="0px"
	 y="0px" viewBox="353 -33.9 849.2 195.2" style="enable-background:new 353 -33.9 849.2 195.2;" xml:space="preserve">
<g>
	<g id="logo_2_">
		<path id="XMLID_11_" d="M492.6,42.6l-98.1-71.4C377.2-41.4,353-29.1,353-7.7v142.8c0,21.4,24.2,33.7,41.5,21.1l98.1-71.4
			C506.9,74.4,506.9,53,492.6,42.6z M449.5,69l-48,36c-4.3,3.2-10.4,0.2-10.4-5.2v-72c0-5.4,6.1-8.5,10.4-5.2l48,36
			C453,61.1,453,66.3,449.5,69z"/>
		<circle id="XMLID_2_" cx="471.1" cy="139" r="17.9"/>
	</g>
	<g id="text">
		<path d="M587.9,98.2c-6.9,0-10.2-2.9-10.2-8.5V30.6c0-5.4,3.2-8.5,10.2-8.5h22.2c25.1,0,30.2,19.4,30.2,38.4
			c0,19.3-5.2,37.7-30.2,37.7H587.9z M606.5,40.9H606c-3.4,0-4.4,0.2-4.4,3.4v31.4c0,3.2,1,3.5,4.4,3.5h0.4c7.4,0,8.7-3.8,8.7-19.3
			C615.2,44.8,614,40.9,606.5,40.9z"/>
		<path d="M699.2,90.8c0,4.8-1.6,5.9-5.4,6.8c-6.4,1.1-17.5,1.7-23.2,1.7c-18.8,0-26.5-4.4-26.5-17.7c0-11.1,3.1-17.1,18.4-18.8
			l9.9-1.1c2.7-0.3,2.9-0.6,2.9-2.8c0-2.2-1.1-2.8-7.7-2.8c-5.2,0-10,0.4-13.8,0.9c-3.2,0.3-5.4-1.9-5.4-7.4c0-4.5,1-7.4,4.4-9.3
			c3.4-1.8,11.9-3.1,17.9-3.1c19.1,0,28.6,4.6,28.6,18.5L699.2,90.8L699.2,90.8z M675.6,75.9c0-2.5-0.6-2.8-2.5-2.8h-1.5
			c-4.7,0-5.6,1.9-5.6,6.3c0,3.9,0.9,6,5.8,6c3.4,0,3.7-0.3,3.7-2.7L675.6,75.9L675.6,75.9z"/>
		<path d="M763.6,94.6c0,3.4-6.3,4-11.9,4c-5.4,0-12.1-0.7-12.1-4V65.4c0-8.4-0.6-10-5-10c-1.3,0-2.6,0.2-3.1,0.7
			c-1,0.9-1,2.1-1,3.9v34.6c0,3.4-6.5,4-11.9,4c-5.4,0-12.1-0.7-12.1-4V45.5c0-4.6,1.5-6,5.3-6.7c6.2-1,17-1.6,22.6-1.6
			c19.8,0,29.2,4.3,29.2,19.6V94.6z"/>
		<path d="M804.2,81.2c2.2,0,3.6-0.4,5.5-0.4c2,0,2.8,2.5,2.8,6.6c0,5.4-1,9.1-2.4,9.9c-2.7,1.6-6.2,2.1-11.1,2.1
			c-15.2,0-29.1-4.8-29.1-29.8c0-24.9,13.2-32.4,29.1-32.4c4,0,8.4,0.3,10.5,1.9c1.3,0.9,2.4,4.3,2.4,8.3s-0.6,8.2-3,8.2
			c-1.8,0-3.2-0.3-5.3-0.3c-4.7,0-8.7,2.2-8.7,13.9C794.9,80.1,799.3,81.2,804.2,81.2z"/>
		<path d="M830.8,14.8c11.6,0,13.4,0.6,13.4,8.6c0,8.3-1.7,8.7-13.4,8.7c-11.3,0-13.5-0.4-13.5-7.6
			C817.2,15.4,819.6,14.8,830.8,14.8z M842.8,94.6c0,3.4-6.7,4-12.1,4c-5.4,0-11.9-0.7-11.9-4V41.9c0-3.5,6.5-4,11.9-4
			c5.4,0,12.1,0.6,12.1,4V94.6z"/>
		<path d="M907.8,94.6c0,3.4-6.3,4-11.9,4c-5.4,0-12.1-0.7-12.1-4V65.4c0-8.4-0.6-10-5-10c-1.3,0-2.6,0.2-3.1,0.7
			c-1,0.9-1,2.1-1,3.9v34.6c0,3.4-6.5,4-11.9,4c-5.4,0-12.1-0.7-12.1-4V45.5c0-4.6,1.5-6,5.3-6.7c6.2-1,17-1.6,22.6-1.6
			c19.8,0,29.2,4.3,29.2,19.6V94.6z"/>
		<path d="M972.7,95.4c0,18.9-12.1,23-31.6,23c-9.9,0-17.7-1.5-21.1-3.5c-2-1.1-3.1-3.5-3.1-7.7c0-5.8,2.5-7.6,4.7-7.4
			c3.9,0.3,10.6,0.8,16.7,0.8c9.2,0,10.6-0.6,10.6-3.6v-1.7c0-1.9-1.2-2.1-9.1-2.1c-15.9,0-25.5-3.2-25.5-24.2
			c0-22.8,9.2-31.8,35.2-31.8c5.7,0,11.6,0.6,17.9,1.8c3.9,0.7,5.3,2,5.3,6.8L972.7,95.4L972.7,95.4z M948.9,54.9c0-0.8-0.4-1-3.1-1
			c-5.3,0-7.3,2.9-7.3,13.1c0,10,2,11.9,7.3,11.9c2.7,0,3.1-0.2,3.1-0.7V54.9z"/>
		<path d="M1062.1,90.6c0,2.6-0.6,4.5-3.1,5.5c-5.6,2.1-12.2,3.2-20.5,3.2c-25.9,0-36.3-13.8-36.3-38.6c0-24.4,9.9-39.8,37.2-39.8
			c6.6,0,13.9,1.1,16.2,2.4c2.7,1.5,4,3.4,4,9.2s-2.2,9.5-5.4,9.1c-2.9-0.4-7.4-0.9-10.2-0.9c-9.3,0-15.7,1.8-15.7,20.2
			c0,16,3,18.7,10.3,18.7c1,0,1.8-0.1,2.2-0.2c0.4-0.1,0.6-0.3,0.6-1.1v-5.7c0-2.4-0.4-2.9-1.7-2.9h-1.6c-2.6,0-4-2.9-4-8.8
			c0-6.3,1.5-9.9,4.4-9.9h15.9c6.9,0,7.6,2.9,7.6,8.5L1062.1,90.6L1062.1,90.6z"/>
		<path d="M1082.1,14.8c11.6,0,13.4,0.6,13.4,8.6c0,8.3-1.7,8.7-13.4,8.7c-11.3,0-13.5-0.4-13.5-7.6
			C1068.5,15.4,1070.9,14.8,1082.1,14.8z M1094.1,94.6c0,3.4-6.7,4-12.1,4c-5.4,0-11.9-0.7-11.9-4V41.9c0-3.5,6.5-4,11.9-4
			s12.1,0.6,12.1,4V94.6z"/>
		<path d="M1133.9,55.8c-1.9,0-3.7-0.3-6.3-0.3c-1.7,0-2.2,0.7-2.2,4.5v34.7c0,3.4-6.5,4-11.9,4s-12.1-0.7-12.1-4V45.5
			c0-4.6,5-6.2,8.8-6.8c5.4-0.9,14-1.5,19.6-1.5c6.2,0,7.6,2.2,7.6,10.2C1137.5,51.8,1136.6,55.8,1133.9,55.8z"/>
		<path d="M1143.9,19.9c0-3.5,6.5-4,11.9-4s12.1,0.6,12.1,4V73c0,6.2,0.2,8.4,4.3,8.4h0.7c2.2,0,2.7,2.5,2.7,6.7
			c0,4.9-0.9,7.8-2.1,9c-2,1.5-4.7,2-10.6,2c-10.9,0-18.8-3.5-18.8-15.7V19.9H1143.9z"/>
		<circle cx="1192" cy="88" r="10.2"/>
	</g>
</g>
</svg>
