<?xml version="1.0" encoding="utf-8"?>
<!-- Generator: Adobe Illustrator 19.0.0, SVG Export Plug-In . SVG Version: 6.00 Build 0)  -->
<svg version="1.1" id="レイヤー_1" xmlns="http://www.w3.org/2000/svg" xmlns:xlink="http://www.w3.org/1999/xlink" x="0px"
	 y="0px" viewBox="0 0 40 6" style="enable-background:new 0 0 40 6;" xml:space="preserve">
<g id="XMLID_3_">
	<g id="XMLID_36_">
		<g id="XMLID_39_">
			<line id="XMLID_40_" class="st0" x1="0" y1="3" x2="40" y2="3"/>
		</g>
		<g id="XMLID_37_">
			<path id="XMLID_38_" class="st0" d="M40,6c-2.1,0-3.2-1.1-3.9-2c-0.7-0.7-1-1-1.8-1c-0.8,0-1.1,0.3-1.8,1c-0.8,0.8-1.9,2-3.9,2
				c-2.1,0-3.2-1.1-3.9-2c-0.7-0.7-1-1-1.8-1c-0.8,0-1.1,0.3-1.8,1c-0.8,0.8-1.9,2-3.9,2c-2.1,0-3.2-1.1-3.9-2c-0.7-0.7-1-1-1.8-1
				c-0.8,0-1.1,0.3-1.8,1C8.9,4.9,7.8,6,5.7,6S2.6,4.9,1.8,4C1.1,3.3,0.8,3,0,3V0c2.1,0,3.2,1.1,3.9,2c0.7,0.7,1,1,1.8,1
				c0.8,0,1.1-0.3,1.8-1c0.8-0.8,1.9-2,3.9-2c2.1,0,3.2,1.1,3.9,2c0.7,0.7,1,1,1.8,1c0.8,0,1.1-0.3,1.8-1c0.8-0.8,1.9-2,3.9-2
				c2.1,0,3.2,1.1,3.9,2c0.7,0.7,1,1,1.8,1c0.8,0,1.1-0.3,1.8-1c0.8-0.8,1.9-2,3.9-2s3.2,1.1,3.9,2c0.7,0.7,1,1,1.8,1V6z"/>
		</g>
	</g>
</g>
</svg>
