<?xml version="1.0" encoding="utf-8"?>
<!-- Generator: Adobe Illustrator 19.0.0, SVG Export Plug-In . SVG Version: 6.00 Build 0)  -->
<svg version="1.1" id="レイヤー_1" xmlns="http://www.w3.org/2000/svg" xmlns:xlink="http://www.w3.org/1999/xlink" x="0px"
	 y="0px" viewBox="0 0 170 39" style="enable-background:new 0 0 170 39;" xml:space="preserve">
<path id="XMLID_48_" class="st0" d="M45.5,26.2c-1.4,0-2-0.6-2-1.7V12.9c0-1.1,0.6-1.7,2-1.7h4.3c4.9,0,5.9,3.8,5.9,7.5
	c0,3.8-1,7.4-5.9,7.4H45.5z M49.1,15L49.1,15c-0.7,0-0.9,0-0.9,0.7v6.2c0,0.6,0.2,0.7,0.9,0.7h0.1c1.5,0,1.7-0.7,1.7-3.8
	C50.9,15.7,50.6,15,49.1,15z"/>
<path id="XMLID_45_" class="st0" d="M67.3,24.8c0,0.9-0.3,1.2-1.1,1.3c-1.3,0.2-3.4,0.3-4.5,0.3c-3.7,0-5.2-0.9-5.2-3.5
	c0-2.2,0.6-3.4,3.6-3.7l1.9-0.2c0.5-0.1,0.6-0.1,0.6-0.5c0-0.4-0.2-0.5-1.5-0.5c-1,0-2,0.1-2.7,0.2c-0.6,0.1-1.1-0.4-1.1-1.4
	c0-0.9,0.2-1.4,0.9-1.8c0.7-0.4,2.3-0.6,3.5-0.6c3.8,0,5.6,0.9,5.6,3.6V24.8z M62.7,21.8c0-0.5-0.1-0.5-0.5-0.5h-0.3
	c-0.9,0-1.1,0.4-1.1,1.2c0,0.8,0.2,1.2,1.1,1.2c0.7,0,0.7-0.1,0.7-0.5V21.8z"/>
<path id="XMLID_43_" class="st0" d="M80,25.5c0,0.7-1.2,0.8-2.3,0.8c-1.1,0-2.4-0.1-2.4-0.8v-5.7c0-1.6-0.1-2-1-2
	c-0.3,0-0.5,0-0.6,0.1c-0.2,0.2-0.2,0.4-0.2,0.8v6.8c0,0.7-1.3,0.8-2.3,0.8c-1.1,0-2.4-0.1-2.4-0.8v-9.6c0-0.9,0.3-1.2,1-1.3
	c1.2-0.2,3.3-0.3,4.4-0.3c3.9,0,5.7,0.8,5.7,3.8V25.5z"/>
<path id="XMLID_41_" class="st0" d="M87.9,22.9c0.4,0,0.7-0.1,1.1-0.1c0.4,0,0.5,0.5,0.5,1.3c0,1.1-0.2,1.8-0.5,1.9
	c-0.5,0.3-1.2,0.4-2.2,0.4c-3,0-5.7-0.9-5.7-5.8c0-4.9,2.6-6.3,5.7-6.3c0.8,0,1.6,0.1,2.1,0.4c0.3,0.2,0.5,0.8,0.5,1.6
	c0,0.8-0.1,1.6-0.6,1.6c-0.4,0-0.6-0.1-1-0.1c-0.9,0-1.7,0.4-1.7,2.7C86.1,22.7,87,22.9,87.9,22.9z"/>
<path id="XMLID_38_" class="st0" d="M93.1,9.8c2.3,0,2.6,0.1,2.6,1.7c0,1.6-0.3,1.7-2.6,1.7c-2.2,0-2.7-0.1-2.7-1.5
	C90.5,10,90.9,9.8,93.1,9.8z M95.5,25.5c0,0.7-1.3,0.8-2.4,0.8c-1.1,0-2.3-0.1-2.3-0.8V15.2c0-0.7,1.3-0.8,2.3-0.8
	c1.1,0,2.4,0.1,2.4,0.8V25.5z"/>
<path id="XMLID_36_" class="st0" d="M108.3,25.5c0,0.7-1.2,0.8-2.3,0.8c-1.1,0-2.4-0.1-2.4-0.8v-5.7c0-1.6-0.1-2-1-2
	c-0.3,0-0.5,0-0.6,0.1c-0.2,0.2-0.2,0.4-0.2,0.8v6.8c0,0.7-1.3,0.8-2.3,0.8c-1.1,0-2.4-0.1-2.4-0.8v-9.6c0-0.9,0.3-1.2,1-1.3
	c1.2-0.2,3.3-0.3,4.4-0.3c3.9,0,5.7,0.8,5.7,3.8V25.5z"/>
<path id="XMLID_33_" class="st0" d="M121,25.7c0,3.7-2.4,4.5-6.2,4.5c-1.9,0-3.5-0.3-4.1-0.7c-0.4-0.2-0.6-0.7-0.6-1.5
	c0-1.1,0.5-1.5,0.9-1.4c0.8,0.1,2.1,0.2,3.3,0.2c1.8,0,2.1-0.1,2.1-0.7v-0.3c0-0.4-0.2-0.4-1.8-0.4c-3.1,0-5-0.6-5-4.7
	c0-4.5,1.8-6.2,6.9-6.2c1.1,0,2.3,0.1,3.5,0.4c0.8,0.1,1,0.4,1,1.3V25.7z M116.3,17.7c0-0.2-0.1-0.2-0.6-0.2c-1,0-1.4,0.6-1.4,2.6
	c0,2,0.4,2.3,1.4,2.3c0.5,0,0.6,0,0.6-0.1V17.7z"/>
<path id="XMLID_31_" class="st0" d="M138.5,24.7c0,0.5-0.1,0.9-0.6,1.1c-1.1,0.4-2.4,0.6-4,0.6c-5.1,0-7.1-2.7-7.1-7.6
	c0-4.8,1.9-7.8,7.3-7.8c1.3,0,2.7,0.2,3.2,0.5c0.5,0.3,0.8,0.7,0.8,1.8c0,1.1-0.4,1.9-1.1,1.8c-0.6-0.1-1.4-0.2-2-0.2
	c-1.8,0-3.1,0.4-3.1,4c0,3.1,0.6,3.7,2,3.7c0.2,0,0.4,0,0.4,0c0.1,0,0.1-0.1,0.1-0.2v-1.1c0-0.5-0.1-0.6-0.3-0.6h-0.3
	c-0.5,0-0.8-0.6-0.8-1.7c0-1.2,0.3-1.9,0.9-1.9h3.1c1.4,0,1.5,0.6,1.5,1.7V24.7z"/>
<path id="XMLID_28_" class="st0" d="M142.4,9.8c2.3,0,2.6,0.1,2.6,1.7c0,1.6-0.3,1.7-2.6,1.7c-2.2,0-2.7-0.1-2.7-1.5
	C139.8,10,140.2,9.8,142.4,9.8z M144.8,25.5c0,0.7-1.3,0.8-2.4,0.8s-2.3-0.1-2.3-0.8V15.2c0-0.7,1.3-0.8,2.3-0.8s2.4,0.1,2.4,0.8
	V25.5z"/>
<path id="XMLID_26_" class="st0" d="M152.6,17.9c-0.4,0-0.7-0.1-1.2-0.1c-0.3,0-0.4,0.1-0.4,0.9v6.8c0,0.7-1.3,0.8-2.3,0.8
	c-1.1,0-2.4-0.1-2.4-0.8v-9.6c0-0.9,1-1.2,1.7-1.3c1.1-0.2,2.7-0.3,3.8-0.3c1.2,0,1.5,0.4,1.5,2C153.3,17.1,153.1,17.9,152.6,17.9z"
	/>
<path id="XMLID_24_" class="st0" d="M154.6,10.9c0-0.7,1.3-0.8,2.3-0.8c1.1,0,2.4,0.1,2.4,0.8v10.4c0,1.2,0,1.6,0.8,1.6h0.1
	c0.4,0,0.5,0.5,0.5,1.3c0,1-0.2,1.5-0.4,1.8c-0.4,0.3-0.9,0.4-2.1,0.4c-2.1,0-3.7-0.7-3.7-3.1V10.9z"/>
<circle id="XMLID_1_" class="st1" cx="164" cy="24.2" r="2"/>
<path id="XMLID_11_" class="st1" d="M27.9,15.3L8.3,1C4.8-1.5,0,1,0,5.2v28.5C0,38,4.8,40.5,8.3,38l19.6-14.3
	C30.7,21.6,30.7,17.4,27.9,15.3z M19.3,20.6l-9.6,7.2c-0.9,0.6-2.1,0-2.1-1V12.3c0-1.1,1.2-1.7,2.1-1l9.6,7.2C20,19,20,20,19.3,20.6
	z"/>
<circle id="XMLID_2_" class="st1" cx="23.6" cy="34.5" r="3.6"/>
</svg>
