<?xml version="1.0" encoding="utf-8"?>
<!-- Generator: Adobe Illustrator 19.0.0, SVG Export Plug-In . SVG Version: 6.00 Build 0)  -->
<svg version="1.1" id="レイヤー_1" xmlns="http://www.w3.org/2000/svg" xmlns:xlink="http://www.w3.org/1999/xlink" x="0px"
	 y="0px" viewBox="0 0 170 39" style="enable-background:new 0 0 170 39;" xml:space="preserve">
<path d="M115.7,17.5c-1,0-1.4,0.6-1.4,2.6s0.4,2.3,1.4,2.3c0.5,0,0.6,0,0.6-0.1v-4.6C116.3,17.5,116.2,17.5,115.7,17.5z"/>
<path d="M62.2,21.3h-0.3c-0.9,0-1.1,0.4-1.1,1.2s0.2,1.2,1.1,1.2c0.7,0,0.7-0.1,0.7-0.5v-1.4h0.1C62.7,21.3,62.6,21.3,62.2,21.3z"/>
<path d="M0,0v5.2C0,1,4.8-1.5,8.3,1l19.6,14.3c2.8,2.1,2.8,6.3,0,8.4L8.3,38C4.8,40.5,0,38,0,33.7V39h170V0H0z M23.6,38.1
	c-2,0-3.6-1.6-3.6-3.6s1.6-3.6,3.6-3.6c2,0,3.6,1.6,3.6,3.6S25.6,38.1,23.6,38.1z M49.8,26.1h-4.3v0.1c-1.4,0-2-0.6-2-1.7V12.9
	c0-1.1,0.6-1.7,2-1.7h4.3c4.9,0,5.9,3.8,5.9,7.5C55.7,22.5,54.7,26.1,49.8,26.1z M67.3,24.8c0,0.9-0.3,1.2-1.1,1.3
	c-1.3,0.2-3.4,0.3-4.5,0.3c-3.7,0-5.2-0.9-5.2-3.5c0-2.2,0.6-3.4,3.6-3.7L62,19c0.5-0.1,0.6-0.1,0.6-0.5S62.4,18,61.1,18
	c-1,0-2,0.1-2.7,0.2c-0.6,0.1-1.1-0.4-1.1-1.4c0-0.9,0.2-1.4,0.9-1.8s2.3-0.6,3.5-0.6c3.8,0,5.6,0.9,5.6,3.6V24.8z M77.7,26.3
	c-1.1,0-2.4-0.1-2.4-0.8v-5.7c0-1.6-0.1-2-1-2c-0.3,0-0.5,0-0.6,0.1c-0.2,0.2-0.2,0.4-0.2,0.8v6.8c0,0.7-1.3,0.8-2.3,0.8
	c-1.1,0-2.4-0.1-2.4-0.8v-9.6c0-0.9,0.3-1.2,1-1.3c1.2-0.2,3.3-0.3,4.4-0.3c3.9,0,5.7,0.8,5.7,3.8v7.4H80
	C80,26.2,78.8,26.3,77.7,26.3z M89,26c-0.5,0.3-1.2,0.4-2.2,0.4c-3,0-5.7-0.9-5.7-5.8c0-4.9,2.6-6.3,5.7-6.3c0.8,0,1.6,0.1,2.1,0.4
	c0.3,0.2,0.5,0.8,0.5,1.6s-0.1,1.6-0.6,1.6c-0.4,0-0.6-0.1-1-0.1c-0.9,0-1.7,0.4-1.7,2.7c0,2.2,0.9,2.4,1.8,2.4
	c0.4,0,0.7-0.1,1.1-0.1s0.5,0.5,0.5,1.3C89.5,25.2,89.3,25.9,89,26z M95.5,25.5c0,0.7-1.3,0.8-2.4,0.8c-1.1,0-2.3-0.1-2.3-0.8V15.2
	c0-0.7,1.3-0.8,2.3-0.8c1.1,0,2.4,0.1,2.4,0.8V25.5z M93.1,13.2c-2.2,0-2.7-0.1-2.7-1.5c0.1-1.7,0.5-1.9,2.7-1.9
	c2.3,0,2.6,0.1,2.6,1.7S95.4,13.2,93.1,13.2z M106,26.3c-1.1,0-2.4-0.1-2.4-0.8v-5.7c0-1.6-0.1-2-1-2c-0.3,0-0.5,0-0.6,0.1
	c-0.2,0.2-0.2,0.4-0.2,0.8v6.8c0,0.7-1.3,0.8-2.3,0.8c-1.1,0-2.4-0.1-2.4-0.8v-9.6c0-0.9,0.3-1.2,1-1.3c1.2-0.2,3.3-0.3,4.4-0.3
	c3.9,0,5.7,0.8,5.7,3.8v7.4h0.1C108.3,26.2,107.1,26.3,106,26.3z M121,25.7c0,3.7-2.4,4.5-6.2,4.5c-1.9,0-3.5-0.3-4.1-0.7
	c-0.4-0.2-0.6-0.7-0.6-1.5c0-1.1,0.5-1.5,0.9-1.4c0.8,0.1,2.1,0.2,3.3,0.2c1.8,0,2.1-0.1,2.1-0.7v-0.3c0-0.4-0.2-0.4-1.8-0.4
	c-3.1,0-5-0.6-5-4.7c0-4.5,1.8-6.2,6.9-6.2c1.1,0,2.3,0.1,3.5,0.4c0.8,0.1,1,0.4,1,1.3V25.7z M138.5,24.7c0,0.5-0.1,0.9-0.6,1.1
	c-1.1,0.4-2.4,0.6-4,0.6c-5.1,0-7.1-2.7-7.1-7.6c0-4.8,1.9-7.8,7.3-7.8c1.3,0,2.7,0.2,3.2,0.5s0.8,0.7,0.8,1.8
	c0,1.1-0.4,1.9-1.1,1.8c-0.6-0.1-1.4-0.2-2-0.2c-1.8,0-3.1,0.4-3.1,4c0,3.1,0.6,3.7,2,3.7c0.2,0,0.4,0,0.4,0c0.1,0,0.1-0.1,0.1-0.2
	v-1.1c0-0.5-0.1-0.6-0.3-0.6h-0.3c-0.5,0-0.8-0.6-0.8-1.7c0-1.2,0.3-1.9,0.9-1.9h3.1c1.4,0,1.5,0.6,1.5,1.7V24.7z M144.8,25.5
	c0,0.7-1.3,0.8-2.4,0.8s-2.3-0.1-2.3-0.8V15.2c0-0.7,1.3-0.8,2.3-0.8s2.4,0.1,2.4,0.8V25.5z M142.4,13.2c-2.2,0-2.7-0.1-2.7-1.5
	c0.1-1.7,0.5-1.9,2.7-1.9c2.3,0,2.6,0.1,2.6,1.7S144.7,13.2,142.4,13.2z M152.6,17.9c-0.4,0-0.7-0.1-1.2-0.1c-0.3,0-0.4,0.1-0.4,0.9
	v6.8c0,0.7-1.3,0.8-2.3,0.8c-1.1,0-2.4-0.1-2.4-0.8v-9.6c0-0.9,1-1.2,1.7-1.3c1.1-0.2,2.7-0.3,3.8-0.3c1.2,0,1.5,0.4,1.5,2
	C153.3,17.1,153.1,17.9,152.6,17.9z M160.3,26c-0.4,0.3-0.9,0.4-2.1,0.4c-2.1,0-3.7-0.7-3.7-3.1V10.9h0.1c0-0.7,1.3-0.8,2.3-0.8
	c1.1,0,2.4,0.1,2.4,0.8v10.4c0,1.2,0,1.6,0.8,1.6h0.1c0.4,0,0.5,0.5,0.5,1.3C160.7,25.2,160.5,25.7,160.3,26z M164,26.2
	c-1.1,0-2-0.9-2-2s0.9-2,2-2s2,0.9,2,2S165.1,26.2,164,26.2z"/>
<path d="M9.7,27.8l9.6-7.2c0.7-0.6,0.7-1.6,0-2.1l-9.6-7.2c-0.9-0.7-2.1-0.1-2.1,1v14.5C7.6,27.8,8.8,28.4,9.7,27.8z"/>
<path d="M49.1,15c-0.7,0-0.9,0-0.9,0.7v6.2c0,0.6,0.2,0.7,0.9,0.7h0.1c1.5,0,1.7-0.7,1.7-3.8C50.9,15.7,50.6,15,49.1,15z"/>
</svg>
